<svg width="146" height="31" viewBox="0 0 146 31" fill="none" xmlns="http://www.w3.org/2000/svg">
<path d="M0 30.5844V1.76819H8.32656C17.8238 19.3257 19.3653 22.1708 19.8544 23.5394H19.9425C19.6203 20.1156 19.5739 15.4105 19.5739 10.7008V1.76819H25.5268V30.5844H17.5386C7.34138 11.2703 6.20088 8.97856 5.73031 7.897H5.68395C5.91807 11.5389 5.94821 16.5173 5.94821 21.6633V30.5844H0Z" fill="#0A46D7"/>
<path d="M49.5468 24.157C49.5468 27.2891 49.5932 29.4706 49.6396 30.5843H43.4688C43.3297 29.9276 43.2811 28.9999 43.2416 27.9688C41.7488 30.2445 39.5907 30.9632 36.5887 30.9632C31.7555 30.9632 29.1199 28.2329 29.1199 23.3326V8.81543H35.4251V22.3819C35.4251 24.6737 36.3291 26.2558 38.9346 26.2558C41.5402 26.2558 43.186 24.7793 43.186 20.9605V8.81543H49.5445V24.157H49.5468Z" fill="#0A46D7"/>
<path d="M53.3416 30.5844V0H59.6885V30.5844H53.3416Z" fill="#0A46D7"/>
<path d="M85.0668 0V24.5176C85.0668 27.0573 85.1085 29.3122 85.1595 30.5844H78.9771C78.8891 30.0011 78.7616 28.7244 78.7616 28.0148C77.6187 29.9116 75.8153 31 71.9742 31C65.815 31 62.6277 26.4694 62.6277 19.7413C62.6277 13.0131 66.5197 8.39526 73.0336 8.39526C76.6336 8.39526 78.1844 9.50667 78.7198 10.377V0H85.0668ZM69.1137 19.5415C69.1137 23.6197 70.639 26.3661 74.0674 26.3661C78.2075 26.3661 79.0119 23.8356 79.0119 19.5851C79.0119 14.9236 77.9757 13.0613 74.2668 13.0613C71.1397 13.0613 69.1137 15.2038 69.1137 19.5392V19.5415Z" fill="#0A46D7"/>
<path d="M108.417 24.9585C108.417 26.4304 108.521 29.0528 108.748 30.5982H103.187C103.006 29.946 102.86 28.6372 102.819 27.9666C101.813 29.7348 99.5432 30.9771 96.0522 30.9771C90.0715 30.9771 87.9551 27.6199 87.9551 24.3316C87.9551 20.4141 90.9686 17.1832 99.3508 17.1832H102.19V15.6011C102.19 13.8215 101.578 12.4414 98.7411 12.4414C95.9038 12.4414 95.2571 13.7342 95.0299 15.3347H88.8893C89.1443 11.8972 91.4345 8.41138 98.8408 8.41138C104.553 8.41138 108.415 10.1818 108.415 15.5712V24.9608L108.417 24.9585ZM102.404 20.8366H99.4644C95.1296 20.8366 94.3205 22.4234 94.3205 23.8815C94.3205 25.3397 95.3034 26.6417 97.7189 26.6417C101.511 26.6417 102.404 24.3706 102.404 21.2959V20.8389V20.8366Z" fill="#0A46D7"/>
<path d="M112.056 15.5758C112.056 11.2771 112.01 9.83044 111.964 8.82926H118.104C118.234 9.55718 118.285 10.5905 118.322 11.4103C119.59 9.66511 121.723 8.40674 125.031 8.40674C128.339 8.40674 130.209 9.87637 131.06 11.7938C132.129 10.067 134.699 8.40674 138.295 8.40674C142.386 8.40674 146 10.3609 146 15.9914V30.5958H139.776V16.9237C139.776 14.9696 138.995 13.0797 136.31 13.0797C133.383 13.0797 132.182 14.9627 132.182 18.2004V30.5958H125.965V16.7515C125.965 14.7927 124.945 13.1187 122.476 13.1187C118.417 13.1187 118.32 14.6412 118.32 18.4737V30.5958H112.054V15.5758H112.056Z" fill="#0A46D7"/>
</svg>
